<?xml version="1.0" encoding="UTF-8" standalone="no"?>
<svg width="60px" height="60px" viewBox="0 0 60 60" version="1.1" xmlns="http://www.w3.org/2000/svg" xmlns:xlink="http://www.w3.org/1999/xlink">
    <!-- Generator: Sketch 3.8.3 (29802) - http://www.bohemiancoding.com/sketch -->
    <title>69 -Clock- (Webby)</title>
    <desc>Created with Sketch.</desc>
    <defs></defs>
    <g id="Page-1" stroke="none" stroke-width="1" fill="none" fill-rule="evenodd">
        <g id="Icons" transform="translate(-1080.000000, -1008.000000)">
            <g id="69--Clock--(Webby)" transform="translate(1081.000000, 1009.000000)">
                <path d="M58,29 C58,12.984 45.016,0 29,0 C12.984,0 0,12.984 0,29 C0,45.016 12.984,58 29,58 C45.016,58 58,45.016 58,29" id="Fill-1301" fill="#FFFFFF"></path>
                <path d="M58,29 C58,12.984 45.016,0 29,0 C12.984,0 0,12.984 0,29 C0,45.016 12.984,58 29,58 C45.016,58 58,45.016 58,29 L58,29 Z" id="Stroke-1302" stroke="#0F81E0" stroke-width="2" stroke-linecap="round" stroke-linejoin="round"></path>
                <path d="M13.9998,9.0119 C17.1688,6.6279 20.9208,4.9779 24.9998,4.3199" id="Stroke-1303" stroke="#1081E0" stroke-width="2" stroke-linecap="round" stroke-linejoin="round"></path>
                <path d="M4.3197,25 C4.9777,20.928 6.6217,17.181 8.9997,14.016" id="Stroke-1304" stroke="#1081E0" stroke-width="2" stroke-linecap="round" stroke-linejoin="round"></path>
                <path d="M9.0127,44.0013 C6.6287,40.8323 4.9787,37.0813 4.3197,33.0023" id="Stroke-1305" stroke="#1081E0" stroke-width="2" stroke-linecap="round" stroke-linejoin="round"></path>
                <path d="M24.9999,53.6803 C20.9279,53.0223 17.1809,51.3773 14.0159,49.0003" id="Stroke-1306" stroke="#1081E0" stroke-width="2" stroke-linecap="round" stroke-linejoin="round"></path>
                <path d="M43.9839,49.0004 C40.8179,51.3784 37.0719,53.0224 32.9999,53.6804" id="Stroke-1307" stroke="#1081E0" stroke-width="2" stroke-linecap="round" stroke-linejoin="round"></path>
                <path d="M53.6803,32.9999 C53.0223,37.0719 51.3783,40.8189 49.0003,43.9839" id="Stroke-1308" stroke="#1081E0" stroke-width="2" stroke-linecap="round" stroke-linejoin="round"></path>
                <path d="M48.9882,13.9999 C51.3732,17.1689 53.0222,20.9219 53.6802,25.0019" id="Stroke-1309" stroke="#1081E0" stroke-width="2" stroke-linecap="round" stroke-linejoin="round"></path>
                <path d="M33.0001,4.3197 C37.0791,4.9787 40.8311,6.6277 44.0001,9.0117" id="Stroke-1310" stroke="#1081E0" stroke-width="2" stroke-linecap="round" stroke-linejoin="round"></path>
                <path d="M29,4 L29,7.988" id="Stroke-1311" stroke="#1081E0" stroke-width="2" stroke-linecap="round" stroke-linejoin="round"></path>
                <path d="M29,50.0121 L29,54.0001" id="Stroke-1312" stroke="#1081E0" stroke-width="2" stroke-linecap="round" stroke-linejoin="round"></path>
                <path d="M54,29 L50.012,29" id="Stroke-1313" stroke="#1081E0" stroke-width="2" stroke-linecap="round" stroke-linejoin="round"></path>
                <path d="M7.9879,29 L3.9999,29" id="Stroke-1314" stroke="#1081E0" stroke-width="2" stroke-linecap="round" stroke-linejoin="round"></path>
                <path d="M46.6777,11.3223 L43.8577,14.1423" id="Stroke-1315" stroke="#1081E0" stroke-width="2" stroke-linecap="round" stroke-linejoin="round"></path>
                <path d="M14.1422,43.8578 L11.3222,46.6778" id="Stroke-1316" stroke="#1081E0" stroke-width="2" stroke-linecap="round" stroke-linejoin="round"></path>
                <path d="M46.6777,46.6777 L43.8577,43.8577" id="Stroke-1317" stroke="#1081E0" stroke-width="2" stroke-linecap="round" stroke-linejoin="round"></path>
                <path d="M14.1422,14.1422 L11.3222,11.3222" id="Stroke-1318" stroke="#1081E0" stroke-width="2" stroke-linecap="round" stroke-linejoin="round"></path>
                <path d="M32,29 C32,27.343 30.657,26 29,26 C27.343,26 26,27.343 26,29 C26,30.657 27.343,32 29,32 C30.657,32 32,30.657 32,29" id="Fill-1319" fill="#C6E3F8"></path>
                <path d="M32,29 C32,27.343 30.657,26 29,26 C27.343,26 26,27.343 26,29 C26,30.657 27.343,32 29,32 C30.657,32 32,30.657 32,29 L32,29 Z" id="Stroke-1320" stroke="#0F81E0" stroke-width="2" stroke-linecap="round" stroke-linejoin="round"></path>
                <path d="M32,29 L40,29" id="Stroke-1548" stroke="#1081E0" stroke-width="2" stroke-linecap="round" stroke-linejoin="round"></path>
                <path d="M29,14 L29,26" id="Stroke-1549" stroke="#1081E0" stroke-width="2" stroke-linecap="round" stroke-linejoin="round"></path>
            </g>
        </g>
    </g>
</svg>