<?xml version="1.0" encoding="UTF-8" standalone="no"?>
<svg width="40px" height="60px" viewBox="0 0 40 60" version="1.1" xmlns="http://www.w3.org/2000/svg" xmlns:xlink="http://www.w3.org/1999/xlink">
    <!-- Generator: Sketch 3.8.3 (29802) - http://www.bohemiancoding.com/sketch -->
    <title>50 -Add Location to Cloud- (Webby)</title>
    <desc>Created with Sketch.</desc>
    <defs></defs>
    <g id="Page-1" stroke="none" stroke-width="1" fill="none" fill-rule="evenodd">
        <g id="Icons" transform="translate(-1190.000000, -788.000000)">
            <g id="50--Add-Location-to-Cloud--(Webby)" transform="translate(1191.000000, 789.000000)">
                <path d="M19,0.0029 C8,0.0029 0,9.0629 0,18.9999 C0,24.9579 2.107,28.2299 4.918,34.0019 C10.547,45.5619 19,57.9999 19,57.9999 C19,57.9999 27.453,45.5619 33.082,34.0019 C35.893,28.2299 38,24.9579 38,18.9999 C38,9.0629 30,0.0029 19,0.0029" id="Fill-314" fill="#FFFFFF"></path>
                <path d="M19,0.0029 C8,0.0029 0,9.0629 0,18.9999 C0,24.9579 2.107,28.2299 4.918,34.0019 C10.547,45.5619 19,57.9999 19,57.9999 C19,57.9999 27.453,45.5619 33.082,34.0019 C35.893,28.2299 38,24.9579 38,18.9999 C38,9.0629 30,0.0029 19,0.0029 L19,0.0029 Z" id="Stroke-315" stroke="#0F81E0" stroke-width="2" stroke-linecap="round" stroke-linejoin="round"></path>
                <path d="M24.4409,16.6013 C24.4079,14.0543 22.3939,12.0003 19.9119,12.0003 C18.2509,12.0003 16.8019,12.9223 16.0129,14.2943 C15.7409,14.2033 15.4499,14.1523 15.1479,14.1523 C13.8129,14.1523 12.6989,15.1173 12.4249,16.4063 C11.2899,16.9663 10.4999,18.1573 10.4999,19.5323 C10.4999,21.4403 12.0169,23.0003 13.8699,23.0003 L20.8409,23.0003 C20.8809,23.0003 20.9189,22.9953 20.9579,22.9943 C20.9969,22.9953 21.0349,23.0003 21.0739,23.0003 L23.8629,23.0003 C25.5879,23.0003 26.9999,21.5473 26.9999,19.7723 C26.9999,18.1993 25.8919,16.8823 24.4409,16.6013" id="Fill-559" fill="#C6E3F8"></path>
                <path d="M24.4409,16.6013 C24.4079,14.0543 22.3939,12.0003 19.9119,12.0003 C18.2509,12.0003 16.8019,12.9223 16.0129,14.2943 C15.7409,14.2033 15.4499,14.1523 15.1479,14.1523 C13.8129,14.1523 12.6989,15.1173 12.4249,16.4063 C11.2899,16.9663 10.4999,18.1573 10.4999,19.5323 C10.4999,21.4403 12.0169,23.0003 13.8699,23.0003 L20.8409,23.0003 C20.8809,23.0003 20.9189,22.9953 20.9579,22.9943 C20.9969,22.9953 21.0349,23.0003 21.0739,23.0003 L23.8629,23.0003 C25.5879,23.0003 26.9999,21.5473 26.9999,19.7723 C26.9999,18.1993 25.8919,16.8823 24.4409,16.6013 L24.4409,16.6013 Z" id="Stroke-560" stroke="#0F81E0" stroke-width="2" stroke-linecap="round" stroke-linejoin="round"></path>
            </g>
        </g>
    </g>
</svg>