<?xml version="1.0" encoding="UTF-8" standalone="no"?>
<svg width="60px" height="56px" viewBox="0 0 60 56" version="1.1" xmlns="http://www.w3.org/2000/svg" xmlns:xlink="http://www.w3.org/1999/xlink">
    <!-- Generator: Sketch 3.7.1 (28215) - http://www.bohemiancoding.com/sketch -->
    <title>106 -Press Tablet- (Webby)</title>
    <desc>Created with Sketch.</desc>
    <defs></defs>
    <g id="Page-1" stroke="none" stroke-width="1" fill="none" fill-rule="evenodd">
        <g id="Icons" transform="translate(-960.000000, -2152.000000)">
            <g id="106--Press-Tablet--(Webby)" transform="translate(961.000000, 2153.000000)">
                <path d="M56.0916,0 L1.9086,0 C0.8546,0 -0.0004,0.854 -0.0004,1.908 L-0.0004,40.092 C-0.0004,41.146 0.8546,42 1.9086,42 L31.9996,42 L31.9996,29 C31.9996,26.772 33.2176,24.832 35.0206,23.797 C35.0156,23.865 34.9996,23.93 34.9996,24 L34.9996,31 L40.9996,31 L40.9996,24 C40.9996,23.93 40.9846,23.865 40.9796,23.797 C42.7826,24.832 43.9996,26.772 43.9996,29 L43.9996,42 L56.0916,42 C57.1456,42 57.9996,41.146 57.9996,40.092 L57.9996,1.908 C57.9996,0.854 57.1456,0 56.0916,0" id="Fill-201" fill="#FFFFFF"></path>
                <path d="M56.0916,0 L1.9086,0 C0.8546,0 -0.0004,0.854 -0.0004,1.908 L-0.0004,40.092 C-0.0004,41.146 0.8546,42 1.9086,42 L31.9996,42 L31.9996,29 C31.9996,26.772 33.2176,24.832 35.0206,23.797 C35.0156,23.865 34.9996,23.93 34.9996,24 L34.9996,31 L40.9996,31 L40.9996,24 C40.9996,23.93 40.9846,23.865 40.9796,23.797 C42.7826,24.832 43.9996,26.772 43.9996,29 L43.9996,42 L56.0916,42 C57.1456,42 57.9996,41.146 57.9996,40.092 L57.9996,1.908 C57.9996,0.854 57.1456,0 56.0916,0 L56.0916,0 Z" id="Stroke-202" stroke="#0096E6" stroke-width="2" stroke-linecap="round" stroke-linejoin="round"></path>
                <path d="M4,4 L4,38 L32,38 L32,29 C32,26.772 33.217,24.832 35.021,23.797 C35.016,23.865 35,23.93 35,24 L35,31 L41,31 L41,24 C41,23.93 40.984,23.865 40.979,23.797 C42.783,24.832 44,26.772 44,29 L44,38 L52,38 L52,4 L4,4 Z" id="Fill-203" fill="#FFFFFF"></path>
                <path d="M4,4 L4,38 L32,38 L32,29 C32,26.772 33.217,24.832 35.021,23.797 C35.016,23.865 35,23.93 35,24 L35,31 L41,31 L41,24 C41,23.93 40.984,23.865 40.979,23.797 C42.783,24.832 44,26.772 44,29 L44,38 L52,38 L52,4 L4,4 L4,4 Z" id="Stroke-204" stroke="#0096E6" stroke-width="2" stroke-linecap="round" stroke-linejoin="round"></path>
                <path d="M41,31 L35,31 L35,24 C35,22.343 36.343,21 38,21 C39.657,21 41,22.343 41,24 L41,31 Z" id="Fill-1696" fill="#D0E8F9"></path>
                <path d="M41,31 L35,31 L35,24 C35,22.343 36.343,21 38,21 C39.657,21 41,22.343 41,24 L41,31 L41,31 Z" id="Stroke-1697" stroke="#0096E6" stroke-width="2" stroke-linecap="round" stroke-linejoin="round"></path>
                <path d="M44,54 L44,29 C44,26.772 42.783,24.832 40.979,23.797 C40.984,23.865 41,23.93 41,24 L41,31 L35,31 L35,24 C35,23.93 35.016,23.865 35.021,23.797 C33.217,24.832 32,26.772 32,29 L32,54" id="Stroke-1698" stroke="#0096E6" stroke-width="2" stroke-linecap="round" stroke-linejoin="round"></path>
                <path d="M37,47 L39,47" id="Stroke-1699" stroke="#0096E6" stroke-width="2" stroke-linecap="round" stroke-linejoin="round"></path>
                <path d="M36,51 L40,51" id="Stroke-1700" stroke="#0096E6" stroke-width="2" stroke-linecap="round" stroke-linejoin="round"></path>
                <path d="M44,32.6948 C44.248,32.4718 44.484,32.2358 44.706,31.9878" id="Stroke-1701" stroke="#0096E6" stroke-width="2" stroke-linecap="round" stroke-linejoin="round"></path>
                <path id="Stroke-1702" stroke="#0096E6" stroke-width="2" stroke-linecap="round" stroke-linejoin="round" stroke-dasharray="1.799,3.598"></path>
                <path d="M46.6715,23.5823 C45.6155,19.7863 42.1325,17.0003 37.9995,17.0003 C33.0295,17.0003 28.9995,21.0293 28.9995,26.0003 C28.9995,27.6623 29.4535,29.2163 30.2415,30.5503" id="Stroke-1703" stroke="#0096E6" stroke-width="2" stroke-linecap="round" stroke-linejoin="round" stroke-dasharray="1.799,3.598,1.799,3.598"></path>
                <path d="M31.2935,31.9878 C31.5155,32.2358 31.7515,32.4718 31.9995,32.6948" id="Stroke-1704" stroke="#0096E6" stroke-width="2" stroke-linecap="round" stroke-linejoin="round"></path>
                <path d="M8,12 L12,8" id="Stroke-1705" stroke="#0096E6" stroke-width="2" stroke-linecap="round" stroke-linejoin="round"></path>
                <path d="M8,17 L10,15" id="Stroke-1706" stroke="#0096E6" stroke-width="2" stroke-linecap="round" stroke-linejoin="round"></path>
                <path d="M12,14 C11.729,14 11.479,13.899 11.29,13.71 C11.109,13.52 11,13.27 11,13 C11,12.729 11.109,12.479 11.29,12.29 C11.67,11.92 12.34,11.92 12.71,12.29 C12.89,12.479 13,12.729 13,13 C13,13.26 12.89,13.52 12.71,13.71 C12.52,13.89 12.26,14 12,14" id="Fill-1707" fill="#0096E6"></path>
                <path d="M14,11 L17,8" id="Stroke-1708" stroke="#0096E6" stroke-width="2" stroke-linecap="round" stroke-linejoin="round"></path>
                <path d="M8,22 L17,13" id="Stroke-1709" stroke="#0096E6" stroke-width="2" stroke-linecap="round" stroke-linejoin="round"></path>
                <path d="M19,12 C18.729,12 18.479,11.89 18.29,11.71 C18.109,11.52 18,11.26 18,11 C18,10.74 18.109,10.479 18.29,10.29 C18.66,9.92 19.33,9.92 19.71,10.29 C19.89,10.479 20,10.74 20,11 C20,11.26 19.89,11.52 19.71,11.71 C19.52,11.899 19.27,12 19,12" id="Fill-1710" fill="#0096E6"></path>
                <path d="M21,9 L22,8" id="Stroke-1711" stroke="#0096E6" stroke-width="2" stroke-linecap="round" stroke-linejoin="round"></path>
            </g>
        </g>
    </g>
</svg>